<svg width="28" height="27" viewBox="0 0 28 27" fill="none" xmlns="http://www.w3.org/2000/svg">
<path fill-rule="evenodd" clip-rule="evenodd" d="M26.5 13.5C26.5 20.4036 20.9036 26 14 26C7.09644 26 1.5 20.4036 1.5 13.5C1.5 6.59644 7.09644 1 14 1C20.9036 1 26.5 6.59644 26.5 13.5ZM27.5 13.5C27.5 20.9558 21.4558 27 14 27C6.54416 27 0.5 20.9558 0.5 13.5C0.5 6.04416 6.54416 0 14 0C21.4558 0 27.5 6.04416 27.5 13.5ZM18.5254 9H11.5254V10H16.8254L9.5 17.3254L10.2071 18.0325L17.5254 10.7141V16H18.5254V9Z" fill="white"/>
</svg>
