<svg width="140" height="25" viewBox="0 0 140 25" fill="none" xmlns="http://www.w3.org/2000/svg">
<path d="M0.104749 6.14525C0.104749 2.04842 1.99022 0 5.76117 0C9.53212 0 11.4176 2.04842 11.4176 6.14525V6.91341H7.78631V5.90084C7.78631 4.29469 7.14618 3.49162 5.86592 3.49162C4.58566 3.49162 3.94553 4.29469 3.94553 5.90084C3.94553 6.99488 4.34125 8.054 5.13268 9.07821C5.43529 9.45065 5.83101 9.88128 6.31983 10.3701L6.98324 10.9986L7.71648 11.6271C8.90363 12.7444 9.75326 13.7337 10.2654 14.595C11.0568 15.8752 11.4525 17.2952 11.4525 18.8547C11.4525 22.9516 9.54376 25 5.72626 25C1.90875 25 0 22.9516 0 18.8547L0 17.3534H3.63128V19.0992C3.63128 20.682 4.29469 21.4735 5.62151 21.4735C6.94832 21.4735 7.61173 20.682 7.61173 19.0992C7.61173 18.0051 7.21601 16.946 6.42458 15.9218C6.12197 15.5493 5.72626 15.1187 5.23743 14.6299L4.57402 14.0014L3.8757 13.338C2.66527 12.2439 1.804 11.2663 1.2919 10.405C0.500466 9.12477 0.104749 7.70484 0.104749 6.14525Z" fill="white"/>
<path d="M31.7746 24.7207H27.8989L27.2355 20.2863H22.5218L21.8584 24.7207H18.3318L22.2424 0.279328H27.8639L31.7746 24.7207ZM23.0106 16.9693H26.7117L24.8612 4.60894L23.0106 16.9693Z" fill="white"/>
<path d="M42.8509 16.6201L37.9976 0.279328H42.0129L44.9459 11.4176L47.8788 0.279328H51.545L46.6917 16.6201V24.7207H42.8509V16.6201Z" fill="white"/>
<path d="M64.5857 0.279328C68.3799 0.279328 70.277 2.15316 70.277 5.90084V6.77374C70.277 9.28771 69.4507 10.9288 67.798 11.6969C69.7067 12.4418 70.6611 14.1876 70.6611 16.9344V18.9246C70.6611 22.7886 68.7174 24.7207 64.8301 24.7207H58.7896V0.279328H64.5857ZM62.6304 13.7221V21.2291H64.8301C66.1569 21.2291 66.8203 20.426 66.8203 18.8198V16.6899C66.8203 15.5726 66.6225 14.7928 66.2268 14.3506C65.8543 13.9316 65.2258 13.7221 64.3413 13.7221H62.6304ZM62.6304 3.77095V10.2304H64.1318C65.6681 10.2304 66.4363 9.36918 66.4363 7.64665V6.28492C66.4363 4.60894 65.7845 3.77095 64.4809 3.77095H62.6304Z" fill="white"/>
<path d="M82.5064 10.5796H87.7788V14.0712H82.5064V21.2291H89.1405V24.7207H78.6656V0.279328H89.1405V3.77095H82.5064V10.5796Z" fill="white"/>
<path d="M97.2119 0.279328H101.053V24.7207H97.2119V0.279328Z" fill="white"/>
<path d="M120.691 15.6075V18.8547C120.691 22.9516 118.782 25 114.964 25C111.147 25 109.238 22.9516 109.238 18.8547V6.14525C109.238 2.04842 111.147 0 114.964 0C118.782 0 120.691 2.04842 120.691 6.14525V8.51955H117.059V5.90084C117.059 4.29469 116.396 3.49162 115.069 3.49162C113.742 3.49162 113.079 4.29469 113.079 5.90084V19.0992C113.079 20.682 113.742 21.4735 115.069 21.4735C116.396 21.4735 117.059 20.682 117.059 19.0992V15.6075H120.691Z" fill="white"/>
<path d="M132.553 10.5796H137.825V14.0712H132.553V21.2291H139.187V24.7207H128.712V0.279328H139.187V3.77095H132.553V10.5796Z" fill="white"/>
</svg>
