<svg width="5" height="8" viewBox="0 0 5 8" fill="none" xmlns="http://www.w3.org/2000/svg">
<path d="M2.21429 5.45238C2.21429 5.12857 2.27143 4.82381 2.38571 4.5381C2.5 4.24603 2.70635 3.9127 3.00476 3.5381C3.23333 3.25873 3.39524 3.02064 3.49048 2.82381C3.58571 2.62064 3.63333 2.39841 3.63333 2.15714C3.63333 1.87143 3.54127 1.64921 3.35714 1.49048C3.17937 1.33175 2.9254 1.25238 2.59524 1.25238C1.93492 1.25238 1.34127 1.50635 0.814286 2.01429L0.5 1.35714C0.753968 1.09683 1.07143 0.890476 1.45238 0.738095C1.83968 0.579365 2.23968 0.5 2.65238 0.5C3.20476 0.5 3.64921 0.646032 3.98571 0.938095C4.32857 1.22381 4.5 1.60794 4.5 2.09048C4.5 2.42063 4.43016 2.71905 4.29048 2.98571C4.15714 3.25238 3.93175 3.55397 3.61429 3.89048C3.31587 4.23968 3.10317 4.53492 2.97619 4.77619C2.85556 5.01111 2.78571 5.25556 2.76667 5.50952L2.7381 5.75714H2.21429V5.45238ZM1.95714 6.56667H2.98571V7.60476H1.95714V6.56667Z" fill="white"/>
</svg>
