<svg width="27" height="27" viewBox="0 0 27 27" fill="none" xmlns="http://www.w3.org/2000/svg">
	<path d="M13.0769 8H13.9231V13.0769H19V13.9231H13.9231V19H13.0769V13.9231H8V13.0769H13.0769V8Z" fill="white" />
	<path fill-rule="evenodd" clip-rule="evenodd" d="M27 13.5C27 20.9558 20.9558 27 13.5 27C6.04416 27 0 20.9558 0 13.5C0 6.04416 6.04416 0 13.5 0C20.9558 0 27 6.04416 27 13.5ZM26 13.5C26 20.4036 20.4036 26 13.5 26C6.59644 26 1 20.4036 1 13.5C1 6.59644 6.59644 1 13.5 1C20.4036 1 26 6.59644 26 13.5Z" fill="white" />
</svg>
